<?xml version="1.0" standalone="no"?>
<!DOCTYPE svg PUBLIC "-//W3C//DTD SVG 20010904//EN"
 "http://www.w3.org/TR/2001/REC-SVG-20010904/DTD/svg10.dtd">
<svg version="1.0" xmlns="http://www.w3.org/2000/svg"
 width="225.000000pt" height="225.000000pt" viewBox="0 0 225.000000 225.000000"
 preserveAspectRatio="xMidYMid meet">

<g transform="translate(0.000000,225.000000) scale(0.100000,-0.100000)"
fill="#000000" stroke="none">
<path d="M1552 2165 c-58 -60 -74 -85 -88 -131 -32 -111 -5 -211 82 -304 l44
-47 0 -129 0 -129 -35 35 c-29 30 -36 45 -44 102 -26 183 -135 285 -331 306
-47 5 -87 8 -89 5 -3 -2 0 -45 6 -97 23 -193 127 -304 304 -323 61 -6 67 -9
127 -66 61 -59 62 -61 62 -114 l0 -53 -48 0 c-48 0 -49 0 -61 -40 -20 -68 -82
-93 -146 -60 l-40 20 -96 -96 -97 -97 19 -31 c38 -63 10 -137 -60 -156 l-40
-11 -3 -125 -3 -126 -77 111 c-43 61 -78 113 -78 116 0 2 16 26 37 52 134 175
155 403 55 600 -33 64 -108 149 -192 217 l-80 64 48 38 c126 100 213 204 251
302 17 42 41 171 41 218 0 12 -60 14 -399 14 l-400 0 5 -57 c17 -189 95 -325
269 -463 l65 -51 -83 -68 c-177 -147 -247 -279 -247 -470 0 -142 28 -227 111
-338 22 -29 39 -55 39 -59 0 -3 -74 -110 -164 -238 -90 -127 -173 -247 -185
-266 -43 -71 -16 -165 59 -202 32 -16 79 -18 528 -18 523 0 534 1 575 48 11
11 24 37 31 56 l12 36 29 -30 28 -29 28 19 c60 44 151 8 165 -66 l6 -34 138 0
138 0 6 34 c14 73 96 107 162 67 l31 -19 98 98 98 98 -22 27 c-33 42 -28 90
13 131 21 21 44 34 60 34 l26 0 0 138 0 139 -40 12 c-71 21 -99 94 -61 157
l19 31 -97 97 -96 96 -42 -21 c-37 -18 -47 -19 -78 -9 -37 12 -75 59 -75 93 0
14 -9 17 -49 17 -28 0 -53 5 -56 10 -4 6 22 40 57 75 62 64 64 65 138 76 130
20 206 69 258 167 30 56 51 150 52 233 l0 25 -82 -9 c-46 -5 -106 -18 -134
-28 -111 -42 -186 -143 -205 -275 -8 -61 -14 -74 -49 -109 l-40 -40 0 164 0
164 51 54 c71 75 94 130 93 223 -1 48 -7 89 -18 114 -17 37 -140 176 -156 176
-4 0 -39 -34 -78 -75z m-612 -24 c0 -53 11 -51 -320 -51 l-308 0 -6 23 c-13
49 -26 47 314 47 309 0 320 -1 320 -19z m733 -40 c50 -56 55 -78 23 -109 l-26
-27 0 28 c0 25 -3 27 -40 27 -37 0 -40 -2 -40 -27 l0 -26 -25 23 c-14 13 -25
31 -25 40 0 18 75 110 90 110 4 0 23 -18 43 -39z m-773 -99 c0 -4 -7 -18 -16
-30 -15 -22 -18 -22 -264 -22 l-249 0 -16 30 -16 30 281 0 c154 0 280 -3 280
-8z m662 -109 c21 -20 28 -36 28 -65 0 -24 -4 -37 -10 -33 -21 13 -68 125 -52
125 3 0 19 -12 34 -27z m168 -3 c-5 -17 -19 -47 -32 -68 l-23 -37 -3 39 c-3
31 2 44 24 67 35 37 45 37 34 -1z m-920 -25 c0 -6 -179 -155 -187 -155 -8 0
-98 70 -153 119 l-45 40 193 1 c105 0 192 -2 192 -5z m468 -91 c21 -9 32 -20
32 -33 0 -25 -8 -26 -32 -4 -17 15 -20 15 -43 -7 l-25 -24 22 -23 21 -23 -26
0 c-32 0 -46 23 -54 90 l-6 49 39 -6 c22 -3 54 -12 72 -19z m808 -99 c-8 -64
-22 -85 -53 -85 l-26 0 21 23 22 23 -25 24 -25 23 -26 -24 -26 -24 4 30 c2 24
10 32 38 42 19 7 50 12 69 12 l34 1 -7 -45z m-656 -66 l10 -32 -30 28 c-22 22
-30 38 -30 64 l0 36 21 -32 c11 -17 24 -46 29 -64z m421 -73 l-31 -31 9 32 c5
18 18 46 28 63 l18 32 3 -33 c3 -25 -3 -39 -27 -63z m-1067 -65 l19 -21 -183
0 -183 0 19 22 c10 11 52 47 92 80 l73 58 72 -59 c40 -32 81 -68 91 -80z m571
89 c34 -35 20 -39 -41 -11 -56 25 -64 41 -21 41 24 0 41 -8 62 -30z m635 -55
c0 -8 -78 -45 -96 -45 -15 0 -14 4 6 25 16 17 34 25 57 25 18 0 33 -2 33 -5z
m-1106 -160 c9 -13 16 -29 16 -35 0 -7 -94 -10 -280 -10 -154 0 -280 2 -280 5
0 4 7 19 15 35 l16 30 248 0 249 0 16 -25z m-84 -155 l0 -40 -180 0 -180 0 0
40 0 40 180 0 180 0 0 -40z m-440 0 c0 -27 -3 -30 -31 -30 -24 0 -30 3 -25 16
3 9 6 22 6 30 0 8 10 14 25 14 21 0 25 -5 25 -30z m570 23 c0 -5 3 -18 6 -30
6 -20 3 -23 -25 -23 -28 0 -31 3 -31 30 0 25 4 30 25 30 14 0 25 -3 25 -7z
m660 -133 c0 -68 -1 -70 -27 -76 -142 -30 -254 -123 -304 -251 -17 -44 -22
-79 -22 -144 0 -75 4 -94 31 -152 41 -89 109 -159 191 -200 61 -30 72 -32 171
-32 93 0 112 3 162 27 118 55 206 170 228 299 29 169 -63 344 -222 419 -35 17
-71 30 -80 30 -42 0 -48 10 -48 81 0 61 2 69 19 69 11 0 28 -14 40 -35 37 -64
121 -98 190 -77 35 11 36 11 93 -45 46 -45 55 -60 47 -74 -31 -58 7 -165 74
-208 l37 -24 0 -76 0 -76 -39 -22 c-64 -37 -99 -140 -71 -208 6 -16 -2 -30
-43 -72 l-50 -52 -68 6 c-60 5 -72 3 -111 -20 -25 -14 -53 -41 -63 -61 l-20
-36 -77 0 c-44 0 -78 4 -78 10 0 16 -62 80 -93 97 -23 11 -48 14 -96 10 l-66
-6 -52 51 c-48 47 -50 52 -41 80 25 71 -14 170 -79 205 -33 17 -33 18 -33 94
l0 77 35 21 c63 37 97 121 78 192 -10 37 -9 39 46 93 55 55 57 55 92 44 69
-21 153 13 190 77 12 21 29 35 40 35 17 0 19 -8 19 -70z m-1150 -35 l0 -35
-64 0 c-58 0 -64 2 -70 23 -12 45 -9 47 64 47 l70 0 0 -35z m290 -75 l0 -110
-41 0 c-58 0 -99 -42 -99 -102 l0 -44 -38 4 c-101 10 -152 -137 -66 -193 31
-20 93 -19 123 1 29 21 51 71 44 104 -4 24 -3 25 34 22 31 -3 46 2 70 22 l30
25 139 -196 c76 -109 141 -201 142 -205 2 -4 -73 -8 -166 -8 l-170 0 -7 30
c-32 144 -248 144 -280 0 l-7 -30 -135 0 -135 0 18 28 c9 15 86 125 171 244
l153 217 0 150 0 151 110 0 110 0 0 -110z m210 91 c0 -45 -9 -51 -76 -51 l-64
0 0 35 0 35 70 0 c62 0 70 -2 70 -19z m-500 -197 c0 -48 -3 -65 -12 -62 -14 5
-88 106 -88 120 0 4 23 8 50 8 l50 0 0 -66z m460 58 c0 -14 -74 -115 -87 -120
-10 -3 -13 14 -13 62 l0 66 50 0 c28 0 50 -4 50 -8z m690 -132 l0 -140 -141 0
-141 0 7 37 c10 54 40 108 86 154 43 43 129 89 167 89 22 0 22 -1 22 -140z
m177 115 c71 -32 137 -102 162 -171 34 -89 40 -84 -124 -84 l-145 0 0 140 0
140 28 0 c15 0 51 -11 79 -25z m-1048 -129 c14 -16 5 -42 -16 -50 -29 -11 -58
35 -36 57 11 12 40 8 52 -7z m-146 -148 c14 -21 2 -48 -22 -48 -30 0 -45 34
-25 55 18 18 33 16 47 -7z m1017 -101 c0 -35 -6 -49 -30 -72 l-30 -29 27 -28
27 -28 43 42 c41 40 43 45 43 100 l0 58 140 0 140 0 -6 -27 c-21 -93 -83 -171
-168 -213 -81 -40 -153 -48 -231 -25 -120 34 -201 118 -229 238 l-6 27 140 0
140 0 0 -43z m-484 -91 c24 -24 34 -43 34 -65 0 -51 -5 -47 -83 71 -17 26 -18
28 -2 28 9 0 32 -15 51 -34z m-476 -96 c38 -38 27 -50 -49 -50 -65 0 -69 1
-64 20 13 47 78 65 113 30z m513 -149 c23 -40 21 -68 -8 -96 l-24 -25 -491 0
-491 0 -24 25 c-29 28 -31 56 -8 96 l17 29 506 0 506 0 17 -29z"/>
</g>
</svg>
